# xmcd CD database file
#
# Track frame offsets:
#	150
#	21212
#	55911
#	71397
#	83789
#	105514
#	121574
#	135006
#	163845
#	180641
#	201036
#	241852
#	268114
#	291395
#	304600
#
# Disc length: 4416 seconds
#
# Revision: 1
# Processed by: cddbd v1.5.1PL0 Copyright (c) Steve Scherf et al.
# Submitted via: CDex 1.51
#
DISCID=c2113e0f
DTITLE=Muddy Waters Blues Band - The Warsaw Session - Jazz Jamboree 76
DYEAR=1976
DGENRE=Blues
TTITLE0=Junior Shuffle
TTITLE1=Floyd's Gitar Blues
TTITLE2=G.P.S Boogie
TTITLE3=Baby Plese Don't Go
TTITLE4=Soon Forgotten
TTITLE5=Corinne Corinna
TTITLE6=Hoochie Coochie Man
TTITLE7=Howlin' Wolf
TTITLE8=Blow Wind Blow
TTITLE9=What's A Matter With The Meal
TTITLE10=Kansas City
TTITLE11=Caldonia
TTITLE12=Screamin' And Cryin'
TTITLE13=I Got My Mojo Working
TTITLE14=Gabbage Man
EXTD=YEAR: 1976
EXTT0=
EXTT1=
EXTT2=
EXTT3=
EXTT4=
EXTT5=
EXTT6=
EXTT7=
EXTT8=
EXTT9=
EXTT10=
EXTT11=
EXTT12=
EXTT13=
EXTT14=
PLAYORDER=
